<?xml version="1.0" encoding="UTF-8"?> <svg xmlns="http://www.w3.org/2000/svg" width="1653" height="359" viewBox="0 0 1653 359" fill="none"><path d="M107.473 110.42C118.237 114.593 128.359 120.269 137.539 127.278C149.571 136.24 156.297 141.184 164.797 140.072C168.422 139.577 180.578 131.882 192.564 119.707C204.55 107.531 216.182 91.3994 228.862 88.6336C244.782 85.1416 252.696 91.6311 252.696 91.6311C252.696 91.6311 233.799 102.54 221.334 116.122C208.87 129.704 194.539 148.817 183.555 157.238C171.878 166.123 159.382 167.9 150.852 162.538C138.819 155.044 110.589 122.905 107.473 110.42Z" fill="#7CC5AD"></path><path d="M84.2593 123.482C85.7491 120.899 87.7679 118.661 90.1829 116.915C93.0568 115.022 96.1694 113.521 99.4387 112.45C99.4387 112.45 117.487 144.635 132.019 158.588C146.55 172.541 159.354 177.979 169.227 176.635C179.1 175.291 195.698 158.619 203.813 149.92C212.914 140.154 242.378 105.589 261.861 98.9297C268.711 102.623 272.089 111.646 272.089 111.646C258.795 118.341 246.784 127.332 236.609 138.207C219.64 156.347 201.946 181.935 193.415 188.734C184.885 195.532 180.318 199.179 170.739 198.793C153.77 198.082 138.498 180.251 125.802 167.117C113.106 153.983 88.8563 128.473 84.2593 123.482Z" fill="#298571"></path><path d="M79.8479 162.342C78.0276 149.858 77.8271 145.438 79.1229 138.238C86.2035 139.242 108.325 160.859 117.904 171.551C127.484 182.244 155.976 212.807 175.444 211.184C192.783 209.639 217.095 171.938 232.136 155.219C250.94 134.251 276.795 120.469 276.795 120.469C276.795 120.469 281.052 130.466 279.88 135.766C267.229 142.858 255.836 151.994 246.158 162.806C232.398 177.717 212.729 207.121 202.209 217.411C191.688 227.702 185.687 233.326 173.639 233.234C161.591 233.141 145.085 218.354 137.712 211.076C130.338 203.799 113.878 182.105 79.8479 162.342Z" fill="#006255"></path><path d="M84.7202 175.606C90.4588 177.306 109.402 194.024 118.056 204.006C126.71 213.987 156.437 246.605 177.092 247.27C192.21 247.764 215.18 216.012 226.719 199.942C238.257 183.872 266.827 150.945 278.566 146.773C274.818 167.061 258.096 180.767 246.618 196.218C240.155 204.902 215.211 239.39 208.979 247.208C202.746 255.027 191.269 271.405 178.836 271.405C161.311 271.405 141.658 253.234 127.775 239.575C112.595 224.68 90.6439 194.472 84.7202 175.606Z" fill="#26302D"></path><path d="M179.191 359C143.748 358.997 109.102 348.467 79.6336 328.741C50.1652 309.016 27.1983 280.981 13.6369 248.181C0.0755941 215.381 -3.4711 179.29 3.44536 144.472C10.3618 109.653 27.4308 77.6709 52.4939 52.569C77.557 27.467 109.489 10.3728 144.251 3.44799C179.013 -3.4768 215.045 0.0787962 247.789 13.6652C280.534 27.2516 308.522 50.2586 328.212 79.7768C347.903 109.295 358.413 143.999 358.413 179.5C358.36 227.093 339.46 272.721 305.861 306.372C272.261 340.024 226.706 358.951 179.191 359ZM179.191 9.25551C145.576 9.25856 112.716 19.2458 84.7672 37.9544C56.8184 56.663 35.0358 83.2526 22.1739 114.361C9.31188 145.469 5.9482 179.699 12.5081 212.723C19.068 245.746 35.257 276.079 59.0278 299.887C82.7986 323.694 113.084 339.907 146.053 346.475C179.023 353.042 213.197 349.67 244.253 336.784C275.31 323.898 301.854 302.077 320.529 274.081C339.205 246.085 349.173 213.171 349.173 179.5C349.124 134.361 331.199 91.0846 299.331 59.1677C267.464 27.2509 224.257 9.3005 179.191 9.25551Z" fill="#26302D"></path><path d="M282.175 314.084C388.23 243.641 344.451 120.94 343.88 121.991C343.88 121.991 368.886 221.854 285.553 290.32C209.163 353.13 123.3 319.878 123.3 319.878C123.3 319.878 144.342 333.46 187.844 337.138C222.583 340.243 263.386 326.677 282.175 314.084Z" fill="#00A2A3"></path><path d="M95.8127 328.415C201.529 399.368 297.696 311.712 296.57 311.573C296.57 311.573 214.163 373.1 119.014 322.389C31.7476 275.942 29.2948 183.773 29.2948 183.773C29.2948 183.773 24.8674 208.496 38.2265 250.076C48.7627 283.389 76.9772 315.899 95.8127 328.415Z" fill="#00A2A3"></path><path d="M19.2358 130.894C-24.9603 250.427 82.5759 323.636 82.4833 322.492C82.4833 322.492 3.51648 256.592 30.5124 152.093C55.1943 56.294 144.173 32.3906 144.173 32.3906C144.173 32.3906 119.182 33.8585 81.8817 56.5722C51.9702 74.5732 26.9952 109.648 19.2358 130.894Z" fill="#00A2A3"></path><path d="M150.913 8.24831C27.2872 21.2121 9.8247 147.219 10.7657 146.616C10.7657 146.616 34.1981 48.8239 137.261 27.2846C231.762 7.50665 291.091 75.1842 291.091 75.1842C291.091 75.1842 279.012 53.892 243.008 31.0084C214.407 12.5747 172.864 5.93059 150.913 8.24831Z" fill="#00A2A3"></path><path d="M342 132.339C316.809 10.4109 189.897 5.63634 190.576 6.43981C190.576 6.43981 290.06 20.068 321.699 120.626C350.746 212.841 289.443 278.726 289.443 278.726C289.443 278.726 309.389 264.557 328.533 226.392C343.99 195.983 346.566 153.971 342 132.339Z" fill="#00A2A3"></path><path d="M409 135.627V72.3503H418.044V127.763H453.671V72.3503H462.715V135.627H409ZM464.085 150V133.277L466.278 135.627H453.671V127.763H472.581V150H464.085Z" fill="#26302D"></path><path d="M484.74 135.627V72.3503H493.784V121.164L531.604 72.3503H540.008V135.627H531.055V86.904L493.144 135.627H484.74Z" fill="#26302D"></path><path d="M591.187 131.379C583.392 131.379 576.723 130.324 571.181 128.215C565.639 126.045 561.406 122.911 558.483 118.814C555.56 114.716 554.098 109.744 554.098 103.898C554.098 98.0527 555.56 93.081 558.483 88.983C561.406 84.8851 565.639 81.7514 571.181 79.5819C576.723 77.4124 583.392 76.3277 591.187 76.3277C591.309 76.3277 591.522 76.3277 591.827 76.3277C592.192 76.3277 592.527 76.3277 592.831 76.3277C593.197 76.3277 593.41 76.3277 593.471 76.3277C601.266 76.3277 607.904 77.4124 613.386 79.5819C618.928 81.7514 623.16 84.8851 626.083 88.983C629.007 93.081 630.468 98.0527 630.468 103.898C630.468 109.684 629.007 114.655 626.083 118.814C623.221 122.911 619.049 126.045 613.568 128.215C608.148 130.324 601.571 131.379 593.836 131.379C593.714 131.379 593.44 131.379 593.014 131.379C592.649 131.379 592.283 131.379 591.918 131.379C591.552 131.379 591.309 131.379 591.187 131.379ZM592.192 124.328C592.314 124.328 592.466 124.328 592.649 124.328C592.831 124.328 592.923 124.328 592.923 124.328C599.135 124.267 604.372 123.484 608.635 121.977C612.898 120.411 616.126 118.121 618.319 115.107C620.572 112.034 621.699 108.267 621.699 103.808C621.699 99.4087 620.572 95.7024 618.319 92.6893C616.065 89.6761 612.807 87.3861 608.544 85.8192C604.342 84.2524 599.196 83.4689 593.105 83.4689C593.045 83.4689 592.892 83.4689 592.649 83.4689C592.466 83.4689 592.314 83.4689 592.192 83.4689C585.919 83.4689 580.59 84.2524 576.205 85.8192C571.881 87.3258 568.593 89.5857 566.339 92.5989C564.086 95.6121 562.959 99.3785 562.959 103.898C562.959 108.418 564.116 112.185 566.431 115.198C568.745 118.211 572.064 120.501 576.388 122.068C580.773 123.574 586.041 124.328 592.192 124.328ZM588.081 137.977V70H596.577V137.977H588.081Z" fill="#26302D"></path><path d="M644.517 135.627V72.3503H669.456C675.059 72.3503 679.839 73.2241 683.798 74.9718C687.756 76.7194 690.802 79.2505 692.933 82.565C695.065 85.8795 696.13 89.8267 696.13 94.4068C696.13 98.9868 695.065 102.934 692.933 106.249C690.802 109.503 687.756 112.034 683.798 113.842C679.839 115.589 675.059 116.463 669.456 116.463H649.541L653.652 112.215V135.627H644.517ZM653.652 113.119L649.541 108.599H669.182C675.028 108.599 679.443 107.363 682.428 104.893C685.473 102.422 686.995 98.9266 686.995 94.4068C686.995 89.887 685.473 86.3917 682.428 83.9209C679.443 81.4501 675.028 80.2147 669.182 80.2147H649.541L653.652 75.6949V113.119Z" fill="#26302D"></path><path d="M738.506 136.35C733.633 136.35 729.096 135.537 724.894 133.91C720.753 132.282 717.16 130.023 714.115 127.13C711.07 124.177 708.694 120.742 706.989 116.825C705.284 112.908 704.431 108.629 704.431 103.989C704.431 99.3484 705.284 95.0697 706.989 91.1525C708.694 87.2354 711.07 83.8305 714.115 80.9379C717.16 77.9849 720.753 75.6949 724.894 74.0678C729.035 72.4407 733.573 71.6271 738.506 71.6271C743.378 71.6271 747.854 72.4407 751.934 74.0678C756.076 75.6346 759.669 77.8945 762.714 80.8475C765.82 83.7401 768.195 87.145 769.839 91.0621C771.544 94.9793 772.397 99.2881 772.397 103.989C772.397 108.689 771.544 112.998 769.839 116.915C768.195 120.832 765.82 124.267 762.714 127.22C759.669 130.113 756.076 132.373 751.934 134C747.854 135.567 743.378 136.35 738.506 136.35ZM738.506 128.305C742.038 128.305 745.296 127.702 748.28 126.497C751.325 125.292 753.944 123.605 756.136 121.435C758.39 119.205 760.125 116.614 761.344 113.661C762.622 110.708 763.262 107.484 763.262 103.989C763.262 100.493 762.622 97.2693 761.344 94.3164C760.125 91.3635 758.39 88.8023 756.136 86.6328C753.944 84.403 751.325 82.6855 748.28 81.4802C745.296 80.275 742.038 79.6723 738.506 79.6723C734.912 79.6723 731.593 80.275 728.548 81.4802C725.564 82.6855 722.945 84.403 720.692 86.6328C718.439 88.8023 716.672 91.3635 715.393 94.3164C714.175 97.2693 713.566 100.493 713.566 103.989C713.566 107.484 714.175 110.708 715.393 113.661C716.672 116.614 718.439 119.205 720.692 121.435C722.945 123.605 725.564 125.292 728.548 126.497C731.593 127.702 734.912 128.305 738.506 128.305Z" fill="#26302D"></path><path d="M787.165 135.627V72.3503H814.662C821.604 72.3503 827.055 73.7363 831.014 76.5085C834.972 79.2806 836.951 83.3183 836.951 88.6215C836.951 93.8041 835.064 97.7815 831.288 100.554C827.512 103.266 822.548 104.621 816.397 104.621L818.042 101.91C825.167 101.91 830.618 103.326 834.394 106.158C838.23 108.93 840.149 112.998 840.149 118.362C840.149 123.785 838.139 128.034 834.12 131.107C830.161 134.121 824.254 135.627 816.397 135.627H787.165ZM796.209 128.486H816.215C821.087 128.486 824.741 127.612 827.177 125.864C829.674 124.056 830.922 121.315 830.922 117.638C830.922 113.962 829.674 111.281 827.177 109.593C824.741 107.906 821.087 107.062 816.215 107.062H796.209V128.486ZM796.209 100.192H814.022C818.468 100.192 821.848 99.3183 824.162 97.5706C826.537 95.823 827.725 93.2618 827.725 89.887C827.725 86.452 826.537 83.8606 824.162 82.113C821.848 80.3653 818.468 79.4915 814.022 79.4915H796.209V100.192Z" fill="#26302D"></path><path d="M846.55 135.627L875.508 72.3503H884.552L913.602 135.627H904.01L878.158 77.4124H881.812L855.959 135.627H846.55ZM858.882 119.808L861.349 112.576H897.341L899.991 119.808H858.882Z" fill="#26302D"></path><path d="M959.516 135.627V115.017L961.892 117.186H941.886C936.709 117.186 932.233 116.313 928.457 114.565C924.742 112.817 921.879 110.316 919.87 107.062C917.921 103.748 916.946 99.7702 916.946 95.1299C916.946 90.3089 918.012 86.2109 920.144 82.8362C922.275 79.4011 925.29 76.8098 929.188 75.0621C933.085 73.2542 937.622 72.3503 942.799 72.3503H968.469V135.627H959.516ZM916.946 135.627L932.75 113.209H942.068L926.63 135.627H916.946ZM959.516 112.124V77.5932L961.892 80.2147H943.164C937.683 80.2147 933.481 81.4802 930.558 84.0113C927.635 86.4821 926.173 90.1582 926.173 95.0395C926.173 99.6798 927.543 103.266 930.284 105.797C933.085 108.328 937.196 109.593 942.616 109.593H961.892L959.516 112.124Z" fill="#26302D"></path><path d="M1012.96 135.627V72.3503H1068.04V135.627H1059.09V77.8644L1061.28 80.2147H1019.72L1022 77.8644V135.627H1012.96Z" fill="#26302D"></path><path d="M1084.17 136.35C1083.25 136.35 1082.34 136.29 1081.43 136.169C1080.51 136.049 1079.51 135.868 1078.41 135.627L1079.05 127.582C1080.02 127.823 1081 127.944 1081.97 127.944C1084.65 127.944 1086.78 126.889 1088.37 124.78C1089.95 122.67 1091.11 119.476 1091.84 115.198C1092.63 110.919 1093.15 105.525 1093.39 99.0169L1094.4 72.3503H1139.43V135.627H1130.48V77.8644L1132.67 80.2147H1100.24L1102.25 77.774L1101.52 98.7458C1101.34 105.013 1100.91 110.497 1100.24 115.198C1099.57 119.898 1098.57 123.815 1097.23 126.949C1095.89 130.083 1094.15 132.433 1092.02 134C1089.95 135.567 1087.33 136.35 1084.17 136.35Z" fill="#26302D"></path><path d="M1150.49 135.627L1179.45 72.3503H1188.49L1217.54 135.627H1207.95L1182.1 77.4124H1185.75L1159.9 135.627H1150.49ZM1162.82 119.808L1165.29 112.576H1201.28L1203.93 119.808H1162.82Z" fill="#26302D"></path><path d="M1238.43 135.627V77.8644L1240.72 80.2147H1216.6V72.3503H1269.31V80.2147H1245.19L1247.38 77.8644V135.627H1238.43Z" fill="#26302D"></path><path d="M1310.76 131.379C1302.97 131.379 1296.3 130.324 1290.76 128.215C1285.21 126.045 1280.98 122.911 1278.06 118.814C1275.13 114.716 1273.67 109.744 1273.67 103.898C1273.67 98.0527 1275.13 93.081 1278.06 88.983C1280.98 84.8851 1285.21 81.7514 1290.76 79.5819C1296.3 77.4124 1302.97 76.3277 1310.76 76.3277C1310.88 76.3277 1311.1 76.3277 1311.4 76.3277C1311.77 76.3277 1312.1 76.3277 1312.41 76.3277C1312.77 76.3277 1312.98 76.3277 1313.05 76.3277C1320.84 76.3277 1327.48 77.4124 1332.96 79.5819C1338.5 81.7514 1342.73 84.8851 1345.66 88.983C1348.58 93.081 1350.04 98.0527 1350.04 103.898C1350.04 109.684 1348.58 114.655 1345.66 118.814C1342.8 122.911 1338.62 126.045 1333.14 128.215C1327.72 130.324 1321.15 131.379 1313.41 131.379C1313.29 131.379 1313.01 131.379 1312.59 131.379C1312.22 131.379 1311.86 131.379 1311.49 131.379C1311.13 131.379 1310.88 131.379 1310.76 131.379ZM1311.77 124.328C1311.89 124.328 1312.04 124.328 1312.22 124.328C1312.41 124.328 1312.5 124.328 1312.5 124.328C1318.71 124.267 1323.95 123.484 1328.21 121.977C1332.47 120.411 1335.7 118.121 1337.89 115.107C1340.15 112.034 1341.27 108.267 1341.27 103.808C1341.27 99.4087 1340.15 95.7024 1337.89 92.6893C1335.64 89.6761 1332.38 87.3861 1328.12 85.8192C1323.92 84.2524 1318.77 83.4689 1312.68 83.4689C1312.62 83.4689 1312.47 83.4689 1312.22 83.4689C1312.04 83.4689 1311.89 83.4689 1311.77 83.4689C1305.49 83.4689 1300.16 84.2524 1295.78 85.8192C1291.46 87.3258 1288.17 89.5857 1285.91 92.5989C1283.66 95.6121 1282.53 99.3785 1282.53 103.898C1282.53 108.418 1283.69 112.185 1286.01 115.198C1288.32 118.211 1291.64 120.501 1295.96 122.068C1300.35 123.574 1305.62 124.328 1311.77 124.328ZM1307.66 137.977V70H1316.15V137.977H1307.66Z" fill="#26302D"></path><path d="M1392.87 136.35C1387.99 136.35 1383.46 135.537 1379.26 133.91C1375.11 132.282 1371.52 130.023 1368.48 127.13C1365.43 124.177 1363.06 120.742 1361.35 116.825C1359.65 112.908 1358.79 108.629 1358.79 103.989C1358.79 99.3484 1359.65 95.0697 1361.35 91.1525C1363.06 87.2354 1365.43 83.8305 1368.48 80.9379C1371.52 77.9849 1375.11 75.6949 1379.26 74.0678C1383.4 72.4407 1387.93 71.6271 1392.87 71.6271C1397.74 71.6271 1402.22 72.4407 1406.3 74.0678C1410.44 75.6346 1414.03 77.8945 1417.08 80.8475C1420.18 83.7401 1422.56 87.145 1424.2 91.0621C1425.91 94.9793 1426.76 99.2881 1426.76 103.989C1426.76 108.689 1425.91 112.998 1424.2 116.915C1422.56 120.832 1420.18 124.267 1417.08 127.22C1414.03 130.113 1410.44 132.373 1406.3 134C1402.22 135.567 1397.74 136.35 1392.87 136.35ZM1392.87 128.305C1396.4 128.305 1399.66 127.702 1402.64 126.497C1405.69 125.292 1408.31 123.605 1410.5 121.435C1412.75 119.205 1414.49 116.614 1415.7 113.661C1416.98 110.708 1417.62 107.484 1417.62 103.989C1417.62 100.493 1416.98 97.2693 1415.7 94.3164C1414.49 91.3635 1412.75 88.8023 1410.5 86.6328C1408.31 84.403 1405.69 82.6855 1402.64 81.4802C1399.66 80.275 1396.4 79.6723 1392.87 79.6723C1389.27 79.6723 1385.95 80.275 1382.91 81.4802C1379.93 82.6855 1377.31 84.403 1375.05 86.6328C1372.8 88.8023 1371.03 91.3635 1369.75 94.3164C1368.54 97.2693 1367.93 100.493 1367.93 103.989C1367.93 107.484 1368.54 110.708 1369.75 113.661C1371.03 116.614 1372.8 119.205 1375.05 121.435C1377.31 123.605 1379.93 125.292 1382.91 126.497C1385.95 127.702 1389.27 128.305 1392.87 128.305Z" fill="#26302D"></path><path d="M1441.53 135.627V72.3503H1466.47C1472.07 72.3503 1476.85 73.2241 1480.81 74.9718C1484.77 76.7194 1487.81 79.2505 1489.94 82.565C1492.07 85.8795 1493.14 89.8267 1493.14 94.4068C1493.14 98.9868 1492.07 102.934 1489.94 106.249C1487.81 109.503 1484.77 112.034 1480.81 113.842C1476.85 115.589 1472.07 116.463 1466.47 116.463H1446.55L1450.66 112.215V135.627H1441.53ZM1450.66 113.119L1446.55 108.599H1466.19C1472.04 108.599 1476.45 107.363 1479.44 104.893C1482.48 102.422 1484 98.9266 1484 94.4068C1484 89.887 1482.48 86.3917 1479.44 83.9209C1476.45 81.4501 1472.04 80.2147 1466.19 80.2147H1446.55L1450.66 75.6949V113.119Z" fill="#26302D"></path><path d="M1505.85 135.627V72.3503H1513.34L1542.02 120.169H1538L1566.32 72.3503H1573.81L1573.9 135.627H1565.13L1565.04 86H1567.14L1541.93 127.944H1537.73L1512.33 86H1514.62V135.627H1505.85Z" fill="#26302D"></path><path d="M1584.95 135.627L1613.91 72.3503H1622.95L1652 135.627H1642.41L1616.56 77.4124H1620.21L1594.36 135.627H1584.95ZM1597.28 119.808L1599.75 112.576H1635.74L1638.39 119.808H1597.28Z" fill="#26302D"></path><path d="M451.037 268.511C444.957 268.511 439.36 267.508 434.244 265.502C429.129 263.497 424.68 260.711 420.899 257.145C417.118 253.505 414.19 249.271 412.114 244.442C410.038 239.539 409 234.19 409 228.396C409 222.601 410.038 217.29 412.114 212.461C414.19 207.558 417.118 203.324 420.899 199.758C424.68 196.118 429.129 193.295 434.244 191.289C439.36 189.283 444.92 188.28 450.925 188.28C457.005 188.28 462.565 189.283 467.607 191.289C472.722 193.295 477.171 196.118 480.952 199.758C484.733 203.324 487.661 207.558 489.737 212.461C491.813 217.29 492.851 222.601 492.851 228.396C492.851 234.19 491.813 239.539 489.737 244.442C487.661 249.345 484.733 253.579 480.952 257.145C477.171 260.711 472.722 263.497 467.607 265.502C462.565 267.508 457.042 268.511 451.037 268.511ZM450.925 255.808C454.855 255.808 458.488 255.139 461.824 253.802C465.16 252.465 468.052 250.571 470.498 248.119C472.945 245.593 474.835 242.696 476.17 239.427C477.578 236.085 478.283 232.407 478.283 228.396C478.283 224.384 477.578 220.744 476.17 217.476C474.835 214.133 472.945 211.235 470.498 208.784C468.052 206.258 465.16 204.327 461.824 202.989C458.488 201.652 454.855 200.984 450.925 200.984C446.996 200.984 443.363 201.652 440.027 202.989C436.765 204.327 433.874 206.258 431.353 208.784C428.906 211.235 426.979 214.133 425.57 217.476C424.236 220.744 423.568 224.384 423.568 228.396C423.568 232.333 424.236 235.973 425.57 239.316C426.979 242.659 428.906 245.593 431.353 248.119C433.799 250.571 436.691 252.465 440.027 253.802C443.363 255.139 446.996 255.808 450.925 255.808Z" fill="#26302D"></path><path d="M524.096 267.397V198.086L527.544 201.652H498.407V189.395H564.242V201.652H535.106L538.442 198.086V267.397H524.096Z" fill="#26302D"></path><path d="M628.2 267.397L601.844 229.399L613.521 222.156L644.548 267.397H628.2ZM576.711 267.397V189.395H590.945V267.397H576.711ZM586.608 234.524V222.044H612.853V234.524H586.608ZM614.855 230.067L601.621 228.284L628.2 189.395H643.547L614.855 230.067Z" fill="#26302D"></path><path d="M654.361 267.397V189.395H686.389C693.284 189.395 699.178 190.509 704.071 192.738C709.038 194.966 712.856 198.161 715.525 202.321C718.194 206.481 719.529 211.421 719.529 217.141C719.529 222.861 718.194 227.801 715.525 231.962C712.856 236.122 709.038 239.316 704.071 241.545C699.178 243.773 693.284 244.888 686.389 244.888H662.368L668.818 238.09V267.397H654.361ZM668.818 239.65L662.368 232.63H685.722C692.098 232.63 696.88 231.293 700.068 228.619C703.33 225.87 704.961 222.044 704.961 217.141C704.961 212.164 703.33 208.338 700.068 205.664C696.88 202.989 692.098 201.652 685.722 201.652H662.368L668.818 194.521V239.65Z" fill="#26302D"></path><path d="M769.126 215.804C778.393 215.804 785.548 217.884 790.589 222.044C795.631 226.204 798.151 232.444 798.151 240.765C798.151 249.531 795.371 256.179 789.811 260.711C784.325 265.168 776.651 267.397 766.791 267.397H733.317V189.395H747.552V215.804H769.126ZM766.123 256.254C771.684 256.254 775.984 254.954 779.024 252.354C782.137 249.753 783.694 245.965 783.694 240.988C783.694 236.085 782.175 232.519 779.135 230.29C776.095 227.987 771.758 226.836 766.123 226.836H747.552V256.254H766.123ZM809.383 267.397V189.395H823.618V267.397H809.383Z" fill="#26302D"></path><path d="M861.848 267.397V198.086L865.295 201.652H836.159V189.395H901.994V201.652H872.857L876.193 198.086V267.397H861.848Z" fill="#26302D"></path><path d="M950.382 215.804C959.65 215.804 966.804 217.884 971.846 222.044C976.887 226.204 979.408 232.444 979.408 240.765C979.408 249.531 976.628 256.179 971.067 260.711C965.581 265.168 957.908 267.397 948.047 267.397H914.573V189.395H928.808V215.804H950.382ZM947.38 256.254C952.94 256.254 957.24 254.954 960.28 252.354C963.394 249.753 964.951 245.965 964.951 240.988C964.951 236.085 963.431 232.519 960.391 230.29C957.351 227.987 953.014 226.836 947.38 226.836H928.808V256.254H947.38ZM990.64 267.397V189.395H1004.87V267.397H990.64Z" fill="#26302D"></path><path d="M1026.87 267.397V189.395H1041.1V244.776L1082.92 189.395H1096.37V267.397H1082.14V212.127L1040.32 267.397H1026.87ZM1061.45 184.158C1054.78 184.158 1049.74 182.746 1046.33 179.923C1042.99 177.1 1041.29 173.126 1041.21 168H1051.33C1051.41 170.749 1052.3 172.866 1054 174.352C1055.78 175.837 1058.27 176.58 1061.45 176.58C1064.64 176.58 1067.12 175.837 1068.9 174.352C1070.76 172.866 1071.72 170.749 1071.8 168H1081.8C1081.73 173.126 1079.99 177.1 1076.58 179.923C1073.17 182.746 1068.13 184.158 1061.45 184.158Z" fill="#26302D"></path><path d="M1200.65 260.711V201.652H1170.17L1169.62 215.47C1169.4 220.67 1169.06 225.61 1168.62 230.29C1168.25 234.896 1167.62 239.093 1166.73 242.882C1165.91 246.671 1164.76 249.828 1163.28 252.354C1161.8 254.879 1159.98 256.551 1157.83 257.368L1142.26 255.139C1145.08 255.288 1147.38 254.322 1149.16 252.242C1151.01 250.162 1152.45 247.265 1153.49 243.55C1154.53 239.836 1155.31 235.49 1155.83 230.513C1156.35 225.461 1156.72 220.001 1156.94 214.133L1157.83 189.395H1214.88V260.711H1200.65ZM1139.59 284L1139.7 255.139H1226.11V284H1212.77V267.397H1153.05V284H1139.59Z" fill="#26302D"></path><path d="M1239.84 267.397V189.395H1254.07V244.776L1295.88 189.395H1309.34V267.397H1295.11V212.127L1253.29 267.397H1239.84Z" fill="#26302D"></path><path d="M1321.27 267.397L1356.3 189.395H1370.53L1405.68 267.397H1390.55L1360.41 197.084H1366.2L1336.17 267.397H1321.27ZM1337.39 249.345L1341.29 237.979H1383.32L1387.22 249.345H1337.39Z" fill="#26302D"></path><path d="M1416.28 268.511C1415.02 268.511 1413.76 268.4 1412.5 268.177C1411.24 267.954 1409.86 267.694 1408.38 267.397L1409.38 254.805C1410.42 255.102 1411.53 255.251 1412.72 255.251C1415.83 255.251 1418.32 253.988 1420.17 251.462C1422.02 248.862 1423.36 245.073 1424.17 240.096C1424.99 235.119 1425.54 228.99 1425.84 221.71L1426.95 189.395H1484.23V267.397H1469.99V198.086L1473.33 201.652H1436.29L1439.41 197.975L1438.63 221.153C1438.41 228.879 1437.89 235.676 1437.07 241.545C1436.26 247.413 1435 252.354 1433.29 256.365C1431.66 260.302 1429.47 263.311 1426.73 265.391C1423.99 267.471 1420.5 268.511 1416.28 268.511Z" fill="#26302D"></path><path d="M1542.27 268.511C1536.19 268.511 1530.59 267.508 1525.47 265.502C1520.36 263.497 1515.91 260.711 1512.13 257.145C1508.35 253.505 1505.42 249.271 1503.34 244.442C1501.27 239.539 1500.23 234.19 1500.23 228.396C1500.23 222.601 1501.27 217.29 1503.34 212.461C1505.42 207.558 1508.35 203.324 1512.13 199.758C1515.91 196.118 1520.36 193.295 1525.47 191.289C1530.59 189.283 1536.15 188.28 1542.16 188.28C1548.24 188.28 1553.8 189.283 1558.84 191.289C1563.95 193.295 1568.4 196.118 1572.18 199.758C1575.96 203.324 1578.89 207.558 1580.97 212.461C1583.04 217.29 1584.08 222.601 1584.08 228.396C1584.08 234.19 1583.04 239.539 1580.97 244.442C1578.89 249.345 1575.96 253.579 1572.18 257.145C1568.4 260.711 1563.95 263.497 1558.84 265.502C1553.8 267.508 1548.27 268.511 1542.27 268.511ZM1542.16 255.808C1546.09 255.808 1549.72 255.139 1553.05 253.802C1556.39 252.465 1559.28 250.571 1561.73 248.119C1564.17 245.593 1566.07 242.696 1567.4 239.427C1568.81 236.085 1569.51 232.407 1569.51 228.396C1569.51 224.384 1568.81 220.744 1567.4 217.476C1566.07 214.133 1564.17 211.235 1561.73 208.784C1559.28 206.258 1556.39 204.327 1553.05 202.989C1549.72 201.652 1546.09 200.984 1542.16 200.984C1538.23 200.984 1534.59 201.652 1531.26 202.989C1528 204.327 1525.1 206.258 1522.58 208.784C1520.14 211.235 1518.21 214.133 1516.8 217.476C1515.47 220.744 1514.8 224.384 1514.8 228.396C1514.8 232.333 1515.47 235.973 1516.8 239.316C1518.21 242.659 1520.14 245.593 1522.58 248.119C1525.03 250.571 1527.92 252.465 1531.26 253.802C1534.59 255.139 1538.23 255.808 1542.16 255.808Z" fill="#26302D"></path><path d="M1600.18 267.397V189.395H1653L1652.89 201.652H1610.96L1614.3 198.198L1614.41 267.397H1600.18Z" fill="#26302D"></path></svg> 